<svg width="2069" height="290" viewBox="0 0 2069 290" fill="none" xmlns="http://www.w3.org/2000/svg">
<path d="M481.643 36.1719C551.4 36.1719 601.891 84.7865 601.891 151.921C601.891 218.724 551.068 267.669 480.647 267.669H386.309V36.1719H481.643ZM425.506 232.613H482.64C527.816 232.613 562.362 199.213 562.362 152.251C562.362 104.96 526.82 71.2269 480.979 71.2269H425.506V232.613Z" fill="#262626"/>
<path d="M792.352 194.637H660.269C666.185 221.66 686.883 238.469 714.484 238.469C733.54 238.469 750.954 231.218 763.768 218.036L783.81 239.457C766.725 258.243 741.754 269.118 711.526 269.118C657.642 269.118 622.156 233.195 622.156 180.465C622.156 127.405 658.627 91.4837 710.54 91.1543C771.982 91.1543 796.952 131.361 792.352 194.637ZM759.497 166.954C758.182 138.61 739.454 121.474 710.869 121.474C683.269 121.474 663.884 138.942 659.613 166.954H759.497Z" fill="#262626"/>
<path d="M939.533 246.091C927.059 261.552 907.034 269.118 881.756 269.118C844.003 269.118 820.367 245.762 820.367 214.839C820.367 182.932 844.332 162.536 886.351 162.207H939.204V156.945C939.204 134.904 925.087 121.746 897.513 121.746C880.77 121.746 863.371 127.668 845.973 139.51L830.545 113.194C854.837 98.7189 872.564 91.1543 905.72 91.1543C950.694 91.1543 975.972 114.181 976.301 152.669L976.628 267.474H939.533V246.091ZM939.205 205.959V189.84H891.933C867.311 189.84 855.821 196.42 855.821 213.194C855.821 228.985 868.625 239.182 889.634 239.182C916.554 239.182 937.235 225.038 939.205 205.959Z" fill="#262626"/>
<path d="M1028.72 266.225V21.7051H1066.34V266.225H1028.72Z" fill="#262626"/>
<path d="M1230.72 197.559C1227.44 197.889 1223.84 197.889 1220.23 197.889H1165.79V267.669H1127.1V36.1719H1220.23C1278.93 36.1719 1312.7 64.9437 1312.7 115.212C1312.7 152.251 1295.65 178.377 1265.15 190.282L1316.64 267.669H1272.7L1230.72 197.559ZM1220.23 162.834C1255.64 162.834 1275.97 147.621 1275.97 116.204C1275.97 85.7794 1255.64 71.2279 1220.23 71.2279H1165.79V162.834H1220.23Z" fill="#262626"/>
<path d="M1529.34 180.136C1529.34 232.866 1491.93 269.118 1437.63 269.118C1383 269.118 1345.59 232.866 1345.59 180.136C1345.59 127.077 1383 91.1543 1437.63 91.1543C1491.93 91.1543 1529.34 127.077 1529.34 180.136ZM1383.66 180.465C1383.66 214.411 1405.84 237.48 1437.63 237.48C1469.08 237.48 1491.26 214.411 1491.26 180.465C1491.26 146.85 1469.08 123.78 1437.63 123.78C1405.84 123.781 1383.66 146.85 1383.66 180.465Z" fill="#262626"/>
<path d="M1737.67 180.136C1737.67 232.866 1700.26 269.118 1645.96 269.118C1591.33 269.118 1553.92 232.866 1553.92 180.136C1553.92 127.077 1591.33 91.1543 1645.96 91.1543C1700.26 91.1543 1737.67 127.077 1737.67 180.136ZM1591.99 180.465C1591.99 214.411 1614.17 237.48 1645.96 237.48C1677.41 237.48 1699.59 214.411 1699.59 180.465C1699.59 146.85 1677.41 123.78 1645.96 123.78C1614.17 123.781 1591.99 146.85 1591.99 180.465Z" fill="#262626"/>
<path d="M2069 159.218V269.118H2031V169.842C2031 142.95 2015.15 126.68 1989.38 126.68C1959.31 127.676 1941.14 150.917 1941.14 181.795V269.118H1903.14V169.842C1903.14 142.95 1887.62 126.68 1861.85 126.68C1831.45 127.676 1812.95 150.917 1812.95 181.795V269.118H1775.29V92.4816H1812.95V126.68C1825.17 101.778 1847.64 91.1543 1876.71 91.1543C1908.1 91.1543 1929.58 106.759 1937.84 133.652C1949.07 104.102 1972.53 91.1543 2004.57 91.1543C2044.88 91.1533 2069 117.051 2069 159.218Z" fill="#262626"/>
<path d="M0 0V289.373H287.926V0H0ZM37.0194 251.34V38.032H123.397V251.34H37.0194ZM160.415 105.001V38.032H250.084V105.001H160.415ZM160.415 251.34V142.206H250.084V251.34H160.415Z" fill="#0278DB"/>
</svg>
